<svg width="503" height="280" viewBox="0 0 503 280" fill="none" xmlns="http://www.w3.org/2000/svg">
<path d="M420.722 8.25105H434.491C434.885 8.25105 435.269 8.53819 435.35 8.8924L494.637 269.064L502.943 272.441L496.824 279.208C496.735 279.377 496.544 279.488 496.3 279.488H474.378C473.985 279.488 473.601 279.201 473.52 278.846L412.004 8.89239C411.959 8.69461 412.018 8.51774 412.148 8.40009L418.281 1.57812C418.737 2.22488 419.731 3.66829 420.057 4.26793C420.464 5.01748 420.828 7.66768 420.755 8.13614C420.75 8.17029 420.739 8.20885 420.722 8.25105Z" fill="url(#paint0_linear_40_467)"/>
<path d="M377.856 31.1317L383.914 24.3913C384.753 24.8242 386.511 25.7929 386.836 26.2043C387.241 26.7187 389.03 29.0333 389.575 30.782C389.596 30.8494 389.616 30.9173 389.634 30.9858H400.197C400.59 30.9858 400.974 31.2729 401.055 31.6272L455.367 269.968C458.773 269.977 460.238 270.045 460.636 270.34C460.982 270.597 462.588 271.922 463.347 272.552L457.211 279.392C457.203 279.39 457.195 279.387 457.187 279.385C457.091 279.45 456.967 279.487 456.824 279.487H434.903C434.51 279.487 434.125 279.2 434.044 278.846L377.709 31.6272C377.674 31.4726 377.703 31.3308 377.778 31.2201C377.778 31.2198 377.779 31.2203 377.778 31.2201L377.783 31.2129C377.804 31.1834 377.829 31.1562 377.856 31.1317Z" fill="url(#paint1_linear_40_467)"/>
<path d="M417.825 279.282L423.901 272.496C422.471 271.663 419.35 269.967 418.305 269.847C417.618 269.768 416.754 269.847 415.904 270.024L366.339 52.5124C366.258 52.1582 365.874 51.871 365.48 51.871H354.812L349.256 45.2104L343.17 51.9799C343.172 51.9825 343.174 51.9851 343.176 51.9877C343.02 52.1038 342.944 52.2955 342.993 52.5124L394.569 278.847C394.65 279.201 395.034 279.488 395.428 279.488H417.349C417.493 279.488 417.619 279.449 417.716 279.383C417.719 279.386 417.723 279.389 417.726 279.392L417.788 279.323C417.801 279.31 417.814 279.296 417.825 279.282Z" fill="url(#paint2_linear_40_467)"/>
<path d="M307.611 69.1751L313.629 62.4717C315.254 63.3651 318.69 65.4335 319.44 66.5603C319.856 67.1862 320.019 68.1335 320.021 69.0541H329.921C330.314 69.0541 330.698 69.3412 330.779 69.6954L376.726 271.329C377.609 271.295 378.774 271.279 379.516 271.275L384.489 272.439L378.394 279.215C378.303 279.38 378.114 279.487 377.873 279.487H355.952C355.559 279.487 355.174 279.2 355.094 278.846L307.433 69.6954C307.385 69.4813 307.458 69.2916 307.611 69.1751Z" fill="url(#paint3_linear_40_467)"/>
<path d="M338.901 279.244L345.037 272.435L337.305 271.567L296.364 91.9022C296.283 91.548 295.899 91.2609 295.505 91.2609H284.558C283.824 89.7233 280.843 86.2565 279.303 84.5643L273.102 91.4497C273.106 91.4531 273.11 91.4565 273.114 91.46C273.018 91.575 272.979 91.7308 273.018 91.9022L315.618 278.846C315.699 279.2 316.083 279.488 316.477 279.488H338.398C338.624 279.488 338.805 279.392 338.901 279.244Z" fill="url(#paint4_linear_40_467)"/>
<path d="M238.738 113.946L244.925 107.068C246.314 108.701 248.89 111.896 249.933 113.732H261.151C261.544 113.732 261.928 114.019 262.009 114.373L297.879 271.783L305.531 272.464L299.389 279.298C299.388 279.297 299.388 279.297 299.387 279.296C299.285 279.414 299.121 279.488 298.922 279.488H277.001C276.608 279.488 276.224 279.201 276.143 278.846L238.663 114.373C238.626 114.211 238.659 114.063 238.744 113.95C238.742 113.949 238.74 113.948 238.738 113.946Z" fill="url(#paint5_linear_40_467)"/>
<path d="M259.982 279.187L266.035 272.477L258.367 271.623L227.112 134.465C227.031 134.111 226.647 133.824 226.254 133.824H213.332C213.581 133.376 213.712 132.761 213.512 132.108C213.238 131.215 211.118 128.409 210.091 127.118L203.972 133.924C203.8 134.038 203.715 134.238 203.766 134.465L236.667 278.846C236.748 279.201 237.132 279.488 237.526 279.488H259.447C259.702 279.488 259.898 279.368 259.982 279.187Z" fill="url(#paint6_linear_40_467)"/>
<path d="M220.518 279.159L226.567 272.477C224.472 272.257 221.015 271.897 218.905 271.684L192.817 157.2C192.737 156.846 192.352 156.558 191.959 156.558H178.702C178.767 156.09 178.67 155.244 178.391 154.325C178.124 153.444 176.526 150.981 175.76 149.859L169.637 156.689C169.492 156.806 169.424 156.991 169.472 157.2L197.192 278.846C197.273 279.2 197.657 279.487 198.05 279.487H219.971C220.238 279.487 220.441 279.355 220.518 279.159Z" fill="url(#paint7_linear_40_467)"/>
<path d="M187.113 272.451L180.996 279.301C180.99 279.292 180.984 279.283 180.978 279.275C180.877 279.405 180.706 279.487 180.496 279.487H158.575C158.181 279.487 157.797 279.2 157.716 278.846L135.84 182.843C135.803 182.683 135.835 182.537 135.917 182.425L135.926 182.412C135.94 182.394 135.956 182.377 135.972 182.361L142.056 175.606C143.007 177.707 144.892 181.942 144.883 182.202H158.327C158.72 182.202 159.105 182.489 159.185 182.843L179.44 271.726L187.113 272.451Z" fill="url(#paint8_linear_40_467)"/>
<path d="M141.487 279.301L147.631 272.438L140.092 272.289L124.891 205.578C124.81 205.224 124.426 204.937 124.032 204.937H110.068C110.066 204.928 110.064 204.92 110.063 204.911C110.053 204.826 110.05 204.376 110.046 203.845C110.04 203.017 110.033 201.993 109.998 201.847C109.952 201.655 108.496 199.404 107.774 198.302L101.69 205.069C101.696 205.069 101.701 205.07 101.707 205.071C101.565 205.188 101.498 205.372 101.545 205.578L118.241 278.846C118.322 279.2 118.706 279.488 119.099 279.488H141.021C141.219 279.488 141.382 279.414 141.484 279.296L141.487 279.301Z" fill="url(#paint9_linear_40_467)"/>
<path d="M102.069 279.21L108.192 272.399L100.584 272.146L90.9575 229.9C90.8768 229.546 90.4925 229.258 90.0991 229.258H77.9437C78.0172 228.288 77.9779 226.933 77.9327 226.15L73.8622 222.625L67.688 229.438C67.6966 229.442 67.7052 229.446 67.7139 229.45C67.6138 229.566 67.5719 229.724 67.6118 229.9L78.7655 278.846C78.8462 279.2 79.2306 279.487 79.624 279.487H101.545C101.789 279.487 101.978 279.377 102.069 279.21Z" fill="url(#paint10_linear_40_467)"/>
<path d="M62.6098 279.176L68.6952 272.399L61.9771 272.026C61.7261 272.043 61.4198 272.066 61.0967 272.092L55.94 249.463C55.8593 249.109 55.475 248.821 55.0816 248.821H41.681C42.1735 247.867 42.5807 247.001 42.5807 246.966C42.5807 246.903 40.0832 243.751 38.8344 242.183L32.626 249.074C32.633 249.077 32.6399 249.079 32.6469 249.082C32.5836 249.188 32.5618 249.32 32.5943 249.463L39.2901 278.846C39.3708 279.2 39.7552 279.488 40.1485 279.488H62.0696C62.3293 279.488 62.5279 279.363 62.6098 279.176Z" fill="url(#paint11_linear_40_467)"/>
<path d="M418.123 2.07298C418.043 1.71878 418.296 1.43164 418.689 1.43164H440.611C441.004 1.43164 441.388 1.71878 441.469 2.07299L502.985 272.027C503.066 272.381 502.812 272.668 502.419 272.668H480.498C480.104 272.668 479.72 272.381 479.639 272.027L418.123 2.07298Z" fill="url(#paint12_linear_40_467)"/>
<path d="M383.829 24.8077C383.748 24.4535 384.001 24.1664 384.395 24.1664H406.316C406.709 24.1664 407.093 24.4535 407.174 24.8077L463.509 272.027C463.59 272.381 463.337 272.668 462.943 272.668H441.022C440.629 272.668 440.244 272.381 440.164 272.027L383.829 24.8077Z" fill="url(#paint13_linear_40_467)"/>
<path d="M349.112 45.693C349.032 45.3388 349.285 45.0516 349.678 45.0516H371.6C371.993 45.0516 372.377 45.3388 372.458 45.693L424.034 272.027C424.115 272.381 423.861 272.668 423.468 272.668H401.547C401.153 272.668 400.769 272.381 400.688 272.027L349.112 45.693Z" fill="url(#paint14_linear_40_467)"/>
<path d="M313.552 62.876C313.472 62.5218 313.725 62.2347 314.119 62.2347H336.04C336.433 62.2347 336.817 62.5218 336.898 62.876L384.559 272.027C384.639 272.381 384.386 272.668 383.992 272.668H362.071C361.678 272.668 361.294 272.381 361.213 272.027L313.552 62.876Z" fill="url(#paint15_linear_40_467)"/>
<path d="M279.137 85.0828C279.057 84.7286 279.31 84.4414 279.704 84.4414H301.625C302.018 84.4414 302.402 84.7286 302.483 85.0828L345.083 272.027C345.164 272.381 344.91 272.668 344.517 272.668H322.596C322.202 272.668 321.818 272.381 321.737 272.027L279.137 85.0828Z" fill="url(#paint16_linear_40_467)"/>
<path d="M244.783 107.554C244.702 107.2 244.955 106.913 245.349 106.913H267.27C267.663 106.913 268.048 107.2 268.128 107.554L305.608 272.027C305.688 272.381 305.435 272.668 305.042 272.668H283.12C282.727 272.668 282.343 272.381 282.262 272.027L244.783 107.554Z" fill="url(#paint17_linear_40_467)"/>
<path d="M209.886 127.646C209.805 127.291 210.058 127.004 210.452 127.004H232.373C232.766 127.004 233.15 127.291 233.231 127.646L266.132 272.027C266.213 272.381 265.959 272.668 265.566 272.668H243.645C243.252 272.668 242.867 272.381 242.787 272.027L209.886 127.646Z" fill="url(#paint18_linear_40_467)"/>
<path d="M175.591 150.38C175.51 150.026 175.764 149.739 176.157 149.739H198.078C198.471 149.739 198.856 150.026 198.936 150.38L226.657 272.027C226.737 272.381 226.484 272.668 226.091 272.668H204.169C203.776 272.668 203.392 272.381 203.311 272.027L175.591 150.38Z" fill="url(#paint19_linear_40_467)"/>
<path d="M141.959 176.024C141.878 175.669 142.132 175.382 142.525 175.382H164.446C164.839 175.382 165.224 175.669 165.305 176.024L187.181 272.027C187.262 272.381 187.009 272.668 186.615 272.668H164.694C164.301 272.668 163.916 272.381 163.836 272.027L141.959 176.024Z" fill="url(#paint20_linear_40_467)"/>
<path d="M107.664 198.759C107.583 198.405 107.837 198.118 108.23 198.118H130.151C130.545 198.118 130.929 198.405 131.01 198.759L147.706 272.027C147.787 272.381 147.533 272.668 147.14 272.668H125.219C124.825 272.668 124.441 272.381 124.36 272.027L107.664 198.759Z" fill="url(#paint21_linear_40_467)"/>
<path d="M73.731 223.08C73.6503 222.726 73.9037 222.439 74.2971 222.439H96.2182C96.6116 222.439 96.996 222.726 97.0767 223.08L108.23 272.027C108.311 272.381 108.058 272.668 107.664 272.668H85.7431C85.3497 272.668 84.9654 272.381 84.8847 272.027L73.731 223.08Z" fill="url(#paint22_linear_40_467)"/>
<path d="M38.7135 242.643C38.6328 242.289 38.8862 242.002 39.2796 242.002H61.2007C61.5941 242.002 61.9785 242.289 62.0592 242.643L68.7549 272.027C68.8357 272.381 68.5822 272.668 68.1888 272.668H46.2677C45.8743 272.668 45.49 272.381 45.4092 272.027L38.7135 242.643Z" fill="url(#paint23_linear_40_467)"/>
<path d="M24.8373 206.413C24.8373 206.413 137.595 155.251 204.755 117.946C273.085 79.9899 369.106 1.02477 369.106 1.02477" stroke="url(#paint24_linear_40_467)" stroke-width="1.35586"/>
<path d="M352.319 4.62946L367.959 1.29192C368.563 1.16311 369.077 1.74046 368.88 2.3252L364.469 15.3825" stroke="#7E5DFF" stroke-width="1.59211" stroke-linecap="round"/>
<defs>
<linearGradient id="paint0_linear_40_467" x1="511.039" y1="44.7157" x2="-7.11598" y2="3.96036" gradientUnits="userSpaceOnUse">
<stop stop-color="#2A34AF"/>
<stop offset="0.292375" stop-color="#871DA4"/>
<stop offset="0.633649" stop-color="#DC2529"/>
<stop offset="1" stop-color="#D2920B"/>
</linearGradient>
<linearGradient id="paint1_linear_40_467" x1="511.039" y1="44.7157" x2="-7.11598" y2="3.96036" gradientUnits="userSpaceOnUse">
<stop stop-color="#2A34AF"/>
<stop offset="0.292375" stop-color="#871DA4"/>
<stop offset="0.633649" stop-color="#DC2529"/>
<stop offset="1" stop-color="#D2920B"/>
</linearGradient>
<linearGradient id="paint2_linear_40_467" x1="511.039" y1="44.7157" x2="-7.11598" y2="3.96036" gradientUnits="userSpaceOnUse">
<stop stop-color="#2A34AF"/>
<stop offset="0.292375" stop-color="#871DA4"/>
<stop offset="0.633649" stop-color="#DC2529"/>
<stop offset="1" stop-color="#D2920B"/>
</linearGradient>
<linearGradient id="paint3_linear_40_467" x1="511.039" y1="44.7157" x2="-7.11598" y2="3.96036" gradientUnits="userSpaceOnUse">
<stop stop-color="#2A34AF"/>
<stop offset="0.292375" stop-color="#871DA4"/>
<stop offset="0.633649" stop-color="#DC2529"/>
<stop offset="1" stop-color="#D2920B"/>
</linearGradient>
<linearGradient id="paint4_linear_40_467" x1="511.039" y1="44.7157" x2="-7.11598" y2="3.96036" gradientUnits="userSpaceOnUse">
<stop stop-color="#2A34AF"/>
<stop offset="0.292375" stop-color="#871DA4"/>
<stop offset="0.633649" stop-color="#DC2529"/>
<stop offset="1" stop-color="#D2920B"/>
</linearGradient>
<linearGradient id="paint5_linear_40_467" x1="511.039" y1="44.7157" x2="-7.11598" y2="3.96036" gradientUnits="userSpaceOnUse">
<stop stop-color="#2A34AF"/>
<stop offset="0.292375" stop-color="#871DA4"/>
<stop offset="0.633649" stop-color="#DC2529"/>
<stop offset="1" stop-color="#D2920B"/>
</linearGradient>
<linearGradient id="paint6_linear_40_467" x1="511.039" y1="44.7157" x2="-7.11598" y2="3.96036" gradientUnits="userSpaceOnUse">
<stop stop-color="#2A34AF"/>
<stop offset="0.292375" stop-color="#871DA4"/>
<stop offset="0.633649" stop-color="#DC2529"/>
<stop offset="1" stop-color="#D2920B"/>
</linearGradient>
<linearGradient id="paint7_linear_40_467" x1="511.039" y1="44.7157" x2="-7.11598" y2="3.96036" gradientUnits="userSpaceOnUse">
<stop stop-color="#2A34AF"/>
<stop offset="0.292375" stop-color="#871DA4"/>
<stop offset="0.633649" stop-color="#DC2529"/>
<stop offset="1" stop-color="#D2920B"/>
</linearGradient>
<linearGradient id="paint8_linear_40_467" x1="511.039" y1="44.7157" x2="-7.11598" y2="3.96036" gradientUnits="userSpaceOnUse">
<stop stop-color="#2A34AF"/>
<stop offset="0.292375" stop-color="#871DA4"/>
<stop offset="0.633649" stop-color="#DC2529"/>
<stop offset="1" stop-color="#D2920B"/>
</linearGradient>
<linearGradient id="paint9_linear_40_467" x1="511.039" y1="44.7157" x2="-7.11598" y2="3.96036" gradientUnits="userSpaceOnUse">
<stop stop-color="#2A34AF"/>
<stop offset="0.292375" stop-color="#871DA4"/>
<stop offset="0.633649" stop-color="#DC2529"/>
<stop offset="1" stop-color="#D2920B"/>
</linearGradient>
<linearGradient id="paint10_linear_40_467" x1="511.039" y1="44.7157" x2="-7.11598" y2="3.96036" gradientUnits="userSpaceOnUse">
<stop stop-color="#2A34AF"/>
<stop offset="0.292375" stop-color="#871DA4"/>
<stop offset="0.633649" stop-color="#DC2529"/>
<stop offset="1" stop-color="#D2920B"/>
</linearGradient>
<linearGradient id="paint11_linear_40_467" x1="511.039" y1="44.7157" x2="-7.11598" y2="3.96036" gradientUnits="userSpaceOnUse">
<stop stop-color="#2A34AF"/>
<stop offset="0.292375" stop-color="#871DA4"/>
<stop offset="0.633649" stop-color="#DC2529"/>
<stop offset="1" stop-color="#D2920B"/>
</linearGradient>
<linearGradient id="paint12_linear_40_467" x1="510.992" y1="43.5334" x2="-0.413175" y2="2.85055" gradientUnits="userSpaceOnUse">
<stop stop-color="#515ACA"/>
<stop offset="0.292375" stop-color="#A231C1"/>
<stop offset="0.633649" stop-color="#F44E52"/>
<stop offset="1" stop-color="#FFC751"/>
</linearGradient>
<linearGradient id="paint13_linear_40_467" x1="510.992" y1="43.5334" x2="-0.413175" y2="2.85055" gradientUnits="userSpaceOnUse">
<stop stop-color="#515ACA"/>
<stop offset="0.292375" stop-color="#A231C1"/>
<stop offset="0.633649" stop-color="#F44E52"/>
<stop offset="1" stop-color="#FFC751"/>
</linearGradient>
<linearGradient id="paint14_linear_40_467" x1="510.992" y1="43.5334" x2="-0.413175" y2="2.85055" gradientUnits="userSpaceOnUse">
<stop stop-color="#515ACA"/>
<stop offset="0.292375" stop-color="#A231C1"/>
<stop offset="0.633649" stop-color="#F44E52"/>
<stop offset="1" stop-color="#FFC751"/>
</linearGradient>
<linearGradient id="paint15_linear_40_467" x1="510.992" y1="43.5334" x2="-0.413175" y2="2.85055" gradientUnits="userSpaceOnUse">
<stop stop-color="#515ACA"/>
<stop offset="0.292375" stop-color="#A231C1"/>
<stop offset="0.633649" stop-color="#F44E52"/>
<stop offset="1" stop-color="#FFC751"/>
</linearGradient>
<linearGradient id="paint16_linear_40_467" x1="510.992" y1="43.5334" x2="-0.413175" y2="2.85055" gradientUnits="userSpaceOnUse">
<stop stop-color="#515ACA"/>
<stop offset="0.292375" stop-color="#A231C1"/>
<stop offset="0.633649" stop-color="#F44E52"/>
<stop offset="1" stop-color="#FFC751"/>
</linearGradient>
<linearGradient id="paint17_linear_40_467" x1="510.992" y1="43.5334" x2="-0.413175" y2="2.85055" gradientUnits="userSpaceOnUse">
<stop stop-color="#515ACA"/>
<stop offset="0.292375" stop-color="#A231C1"/>
<stop offset="0.633649" stop-color="#F44E52"/>
<stop offset="1" stop-color="#FFC751"/>
</linearGradient>
<linearGradient id="paint18_linear_40_467" x1="510.992" y1="43.5334" x2="-0.413175" y2="2.85055" gradientUnits="userSpaceOnUse">
<stop stop-color="#515ACA"/>
<stop offset="0.292375" stop-color="#A231C1"/>
<stop offset="0.633649" stop-color="#F44E52"/>
<stop offset="1" stop-color="#FFC751"/>
</linearGradient>
<linearGradient id="paint19_linear_40_467" x1="510.992" y1="43.5334" x2="-0.413175" y2="2.85055" gradientUnits="userSpaceOnUse">
<stop stop-color="#515ACA"/>
<stop offset="0.292375" stop-color="#A231C1"/>
<stop offset="0.633649" stop-color="#F44E52"/>
<stop offset="1" stop-color="#FFC751"/>
</linearGradient>
<linearGradient id="paint20_linear_40_467" x1="510.992" y1="43.5334" x2="-0.413175" y2="2.85055" gradientUnits="userSpaceOnUse">
<stop stop-color="#515ACA"/>
<stop offset="0.292375" stop-color="#A231C1"/>
<stop offset="0.633649" stop-color="#F44E52"/>
<stop offset="1" stop-color="#FFC751"/>
</linearGradient>
<linearGradient id="paint21_linear_40_467" x1="510.992" y1="43.5334" x2="-0.413175" y2="2.85055" gradientUnits="userSpaceOnUse">
<stop stop-color="#515ACA"/>
<stop offset="0.292375" stop-color="#A231C1"/>
<stop offset="0.633649" stop-color="#F44E52"/>
<stop offset="1" stop-color="#FFC751"/>
</linearGradient>
<linearGradient id="paint22_linear_40_467" x1="510.992" y1="43.5334" x2="-0.413175" y2="2.85055" gradientUnits="userSpaceOnUse">
<stop stop-color="#515ACA"/>
<stop offset="0.292375" stop-color="#A231C1"/>
<stop offset="0.633649" stop-color="#F44E52"/>
<stop offset="1" stop-color="#FFC751"/>
</linearGradient>
<linearGradient id="paint23_linear_40_467" x1="510.992" y1="43.5334" x2="-0.413175" y2="2.85055" gradientUnits="userSpaceOnUse">
<stop stop-color="#515ACA"/>
<stop offset="0.292375" stop-color="#A231C1"/>
<stop offset="0.633649" stop-color="#F44E52"/>
<stop offset="1" stop-color="#FFC751"/>
</linearGradient>
<linearGradient id="paint24_linear_40_467" x1="26.2418" y1="205.737" x2="416.459" y2="157.807" gradientUnits="userSpaceOnUse">
<stop stop-color="#FFAF6A"/>
<stop offset="0.47785" stop-color="#FF7C80"/>
<stop offset="0.761321" stop-color="#C75BFF"/>
<stop offset="1" stop-color="#565DFF"/>
</linearGradient>
</defs>
</svg>
